{
	"asset":{
		"generator":"Khronos glTF Blender I/O v4.4.56",
		"version":"2.0"
	},
	"scene":0,
	"scenes":[
		{
			"name":"Scene",
			"nodes":[
				0
			]
		}
	],
	"nodes":[
		{
			"mesh":0,
			"name":"Apple",
			"scale":[
				0.02000000886619091,
				0.02000000886619091,
				0.02000000886619091
			]
		}
	],
	"materials":[
		{
			"doubleSided":true,
			"name":"Apple_material",
			"normalTexture":{
				"index":0
			},
			"occlusionTexture":{
				"index":1
			},
			"pbrMetallicRoughness":{
				"baseColorTexture":{
					"index":2
				},
				"metallicRoughnessTexture":{
					"index":1
				}
			}
		}
	],
	"meshes":[
		{
			"name":"defaultMaterial.001",
			"primitives":[
				{
					"attributes":{
						"POSITION":0,
						"NORMAL":1,
						"TEXCOORD_0":2
					},
					"indices":3,
					"material":0
				}
			]
		}
	],
	"textures":[
		{
			"sampler":0,
			"source":0
		},
		{
			"sampler":0,
			"source":1
		},
		{
			"sampler":0,
			"source":2
		}
	],
	"images":[
		{
			"mimeType":"image/png",
			"name":"Apple_material_normal",
			"uri":"Apple_material_normal.png"
		},
		{
			"mimeType":"image/png",
			"name":"Apple_material_metallicRoughness",
			"uri":"Apple_material_metallicRoughness.png"
		},
		{
			"mimeType":"image/jpeg",
			"name":"Apple_material_baseColor",
			"uri":"Apple_material_baseColor.jpg"
		}
	],
	"accessors":[
		{
			"bufferView":0,
			"componentType":5126,
			"count":217,
			"max":[
				13.948745727539062,
				32.989952087402344,
				13.398872375488281
			],
			"min":[
				-12.986175537109375,
				0.08121836185455322,
				-13.568939208984375
			],
			"type":"VEC3"
		},
		{
			"bufferView":1,
			"componentType":5126,
			"count":217,
			"type":"VEC3"
		},
		{
			"bufferView":2,
			"componentType":5126,
			"count":217,
			"type":"VEC2"
		},
		{
			"bufferView":3,
			"componentType":5123,
			"count":906,
			"type":"SCALAR"
		}
	],
	"bufferViews":[
		{
			"buffer":0,
			"byteLength":2604,
			"byteOffset":0,
			"target":34962
		},
		{
			"buffer":0,
			"byteLength":2604,
			"byteOffset":2604,
			"target":34962
		},
		{
			"buffer":0,
			"byteLength":1736,
			"byteOffset":5208,
			"target":34962
		},
		{
			"buffer":0,
			"byteLength":1812,
			"byteOffset":6944,
			"target":34963
		}
	],
	"samplers":[
		{
			"magFilter":9729,
			"minFilter":9987
		}
	],
	"buffers":[
		{
			"byteLength":8756,
			"uri":"Apple.bin"
		}
	]
}
